# xmcd
#
# Track frame offsets:
#	150
#	11584
#	24553
#	38011
#	49840
#	62411
#	81916
#	93694
#	103940
#	120704
#	131413
#	142130
#	156230
#	168885
#	183505
#	191955
#	201588
#	214359
#	230076
#	242251
#
# Disc length: 3362 seconds
#
# Revision: 4
# Processed by: cddbd v1.5.2PL0 Copyright (c) Steve Scherf et al.
# Submitted via: audiograbber 1.83.01
#
DISCID=260d2014
DTITLE=Various Artist - Country Greats  [CD15)
DYEAR=1999
DGENRE=Oldies
TTITLE0=Bill Monroe - Orange Blossom Special
TTITLE1=Burl Ives - One More Time Billy Brown
TTITLE2=Carl Perkins - Country Soul
TTITLE3=Dolly Parton - Little Orphans
TTITLE4=Ferlin Husky - Don't Fall Asleep At The Wheel
TTITLE5=Kenny Rogers - Lay It Down
TTITLE6=Jimmy Dean - Let's Pick Up The Pieces
TTITLE7=Patsy Cline - I Love You Honey
TTITLE8=Johnny Lee - Daddy 2
TTITLE9=Johnny Paycheck - I'm A Coward
TTITLE10=Jim Reeves - If Heartaches Are The Fashion
TTITLE11=Kenny Rogers - Loser
TTITLE12=Lee Greenwood - Thank You For Changing My Life
TTITLE13=Merle Haggard - Folsom Prison Blues
TTITLE14=Johnny Cash - Guess Things Happen That Way
TTITLE15=Patsy Cline - I'm Blue Again
TTITLE16=Johnny Paycheck - I'm Not Looking Back Anymore
TTITLE17=Jimmy Dean - Me And Red And Bill
TTITLE18=Waylon Jennings - Don't Think Twice
TTITLE19=Carl Perkins - Daddy Sang Bass
EXTD=
EXTT0=
EXTT1=
EXTT2=
EXTT3=
EXTT4=
EXTT5=
EXTT6=
EXTT7=
EXTT8=
EXTT9=
EXTT10=
EXTT11=
EXTT12=
EXTT13=
EXTT14=
EXTT15=
EXTT16=
EXTT17=
EXTT18=
EXTT19=
PLAYORDER=
